# xmcd
#
# Track frame offsets: 
#        150
#        13546
#        27348
#        42908
#        56749
#        69418
#        80943
#        94978
#        107535
#        121256
#        135389
#        149730
#
# Disc length: 2286 seconds
#
# Revision: 1
# Processed by: cddbd v1.5.2PL0 Copyright (c) Steve Scherf et al.
# Submitted via: ExactAudioCopy v0.99pb5
#
DISCID=a808ec0c
DTITLE=Orig. Tiroler Echo - A bärige Musig
DYEAR=1900
DGENRE=Folk
TTITLE0=A Bärige Musig
TTITLE1=Im Hochfirst 
TTITLE2=Am Berg Oben Blühen Die Bliamlan 
TTITLE3=Im Tirolerland
TTITLE4=Fesche Zillertalerin 
TTITLE5=Gmiatliche Leut 
TTITLE6=Wenn Des Nachts Der Mond Erwacht 
TTITLE7=Madl Boarischer
TTITLE8=Hansi Sunnyboy 
TTITLE9=Lass Dir Zeit 
TTITLE10=Harmonika Akrobatik 
TTITLE11=Hirtenlied 
EXTD=
EXTT0=
EXTT1=
EXTT2=
EXTT3=
EXTT4=
EXTT5=
EXTT6=
EXTT7=
EXTT8=
EXTT9=
EXTT10=
EXTT11=
PLAYORDER=
